<svg width="100" height="100" xmlns="http://www.w3.org/2000/svg">
 <g>
  <title>Layer 1</title>
  <circle fill="#ffffff" cx="50" cy="50" r="50" id="svg_1"/>
  <path d="m49.999847,2.18628c-24.239807,0 -44.322121,17.718979 -47.715675,40.766834c2.846008,-2.291821 7.975151,-5.553387 15.461296,-7.103607c5.460129,-12.252424 17.853882,-20.813979 32.254379,-20.813979c15.724777,0 29.051849,10.207404 33.577454,24.283023c-2.541656,-0.672794 -5.558304,-1.10128 -9.11731,-1.10128c-12.159424,0 -19.010132,5.55545 -19.010132,5.55545l-5.450012,-22.511219l-5.424561,22.461483c-0.347672,-0.275494 -7.110489,-5.505714 -18.952759,-5.505714c-2.206787,0 -4.256927,0.179691 -6.153,0.480263c-0.960068,0.152779 -1.880707,0.334831 -2.761917,0.546436c-8.51757,2.04557 -13.316872,6.550526 -14.574966,7.865177c0,0 -0.292847,0.314671 -0.292847,0.314671l0,0.099251c-0.038193,0.779861 -0.058601,1.562263 -0.058601,2.351429c0,26.323898 21.60273,47.688194 48.218636,47.688194c20.266953,0 37.624237,-12.38942 44.752457,-29.921066c-1.212219,-2.095398 -4.236404,-6.024662 -10.799377,-8.461346c-4.118103,14.719143 -17.764709,25.533085 -33.953079,25.533085c-17.277039,0 -31.655945,-12.318672 -34.648407,-28.554935c0.853165,-0.359707 5.820572,-2.318272 13.083939,-2.318272c6.981873,0 12.177155,2.174679 13.076202,2.57489l-4.37027,18.098335l25.71698,0l-4.361252,-18.065254c0.546234,-0.250767 5.881714,-2.607971 13.158951,-2.607971c1.549683,-0.00333 3.09819,0.094849 4.637665,0.26495c7.47847,0.932747 14.922531,4.091335 19.73082,10.00951l0.042007,-0.13242c1.396912,-4.459827 2.151993,-9.195992 2.151993,-14.1077c0,-26.324009 -21.602707,-47.688232 -48.218613,-47.688232l0,0.000015l0,0z" id="svg_10" fill="#000000"/>
 </g>
</svg>
